<svg xmlns="http://www.w3.org/2000/svg" width="10.577" height="14.946" viewBox="0 0 10.577 14.946"><defs><style>.a{fill:#b9fba9;}.b{fill:none;stroke:#40ae77;stroke-linecap:round;stroke-linejoin:round;stroke-width:0.5px;}</style></defs><g transform="translate(-241 -411)"><path class="a" d="M7.5,14.941l-.4-.495c-.973-1.189-4.9-6.556-4.9-9.16A5.066,5.066,0,0,1,7.036,0q.222-.01.445,0a5.066,5.066,0,0,1,5.286,4.836q.01.225,0,.45c0,2.213-2.669,6.111-4.678,8.851ZM7.481.986a4.077,4.077,0,0,0-4.3,4.3c0,1.832,2.759,6.038,4.286,8.034,1.25-1.71,4.315-5.989,4.315-8.034a4.077,4.077,0,0,0-4.3-4.3Z" transform="translate(238.805 411.005)"/><path class="b" d="M3,7.307H7.549m-4.3-.758H7.3m-3.538,0V5.285M4.769,6.549V5.285M5.78,6.549V5.285M6.791,6.549V5.285M5.274,3.771l0,0m2.273.758L5.812,2.983A1.215,1.215,0,0,0,5.419,2.7a.506.506,0,0,0-.29,0,1.215,1.215,0,0,0-.392.286L3,4.527Z" transform="translate(241.014 411.166)"/></g></svg>