<svg xmlns="http://www.w3.org/2000/svg" width="10.577" height="14.946" viewBox="0 0 10.577 14.946">
  <g id="User" transform="translate(-262 -449)">
    <path id="Layer_7" d="M7.5,14.941l-.4-.495c-.973-1.189-4.9-6.556-4.9-9.16A5.066,5.066,0,0,1,7.036,0q.222-.01.445,0a5.066,5.066,0,0,1,5.286,4.836q.01.225,0,.45c0,2.213-2.669,6.111-4.678,8.851ZM7.481,2.8c-1.159-.065-1.143.183-1.964,1S4.838,5.207,4.9,6.367c0,1.832,1.07,2.3,2.6,4.3,1.25-1.71,2.7-3.332,2.7-5.377.065-1.159-.016-.944-.837-1.765S8.641,2.73,7.482,2.8Z" transform="translate(259.805 449.005)" fill="red" style="mix-blend-mode: darken;isolation: isolate"/>
    <path id="Layer_7-2" data-name="Layer_7" d="M5.437,9.128l-.244-.3C4.6,8.1,2.2,4.819,2.2,3.228A3.1,3.1,0,0,1,5.153,0q.136-.006.272,0a3.1,3.1,0,0,1,3.23,2.955q.006.137,0,.275c0,1.352-1.631,3.734-2.859,5.409ZM5.425.6A2.491,2.491,0,0,0,2.8,3.228c0,1.119,1.686,3.69,2.619,4.909.764-1.045,2.637-3.66,2.637-4.909A2.491,2.491,0,0,0,5.426.6Z" transform="translate(261.862 451.4)" fill="red" style="mix-blend-mode: darken;isolation: isolate"/>
  </g>
</svg>
