<svg xmlns="http://www.w3.org/2000/svg" width="10.577" height="14.946" viewBox="0 0 10.577 14.946"><defs><style>.a{fill:#a8a8a8;}.b{fill:#373737;}</style></defs><g transform="translate(-262 -411)"><path class="a" d="M7.5,14.941l-.4-.495c-.973-1.189-4.9-6.556-4.9-9.16A5.066,5.066,0,0,1,7.036,0q.222-.01.445,0a5.066,5.066,0,0,1,5.286,4.836q.01.225,0,.45c0,2.213-2.669,6.111-4.678,8.851ZM7.481.986a4.077,4.077,0,0,0-4.3,4.3c0,1.832,2.759,6.038,4.286,8.034,1.25-1.71,4.315-5.989,4.315-8.034a4.077,4.077,0,0,0-4.3-4.3Z" transform="translate(259.805 411.005)"/><g transform="translate(263.319 409.808)"><path class="b" d="M1.819,8.159a.568.568,0,0,0,.191-.033A.569.569,0,0,0,3.147,8.1V5.819A.569.569,0,0,0,2.01,5.789a.57.57,0,0,0-.76.537V7.59A.569.569,0,0,0,1.819,8.159Z" transform="translate(0)"/><path class="b" d="M15.25,5.819a.569.569,0,0,1,1.138-.031.57.57,0,0,1,.76.537V7.59a.57.57,0,0,1-.76.537A.569.569,0,0,1,15.25,8.1Z" transform="translate(-10.458)"/><path class="b" d="M11.012,10.5H10v.759h1.012Z" transform="translate(-6.536 -3.922)"/></g></g></svg>