<svg xmlns="http://www.w3.org/2000/svg" width="10.577" height="14.946" viewBox="0 0 10.577 14.946"><defs><style>.a{fill:#ffe9a1;}.b{fill:#ffc400;}</style></defs><g transform="translate(-241 -449)"><path class="a" d="M7.5,14.941l-.4-.495c-.973-1.189-4.9-6.556-4.9-9.16A5.066,5.066,0,0,1,7.036,0q.222-.01.445,0a5.066,5.066,0,0,1,5.286,4.836q.01.225,0,.45c0,2.213-2.669,6.111-4.678,8.851ZM7.481.986a4.077,4.077,0,0,0-4.3,4.3c0,1.832,2.759,6.038,4.286,8.034,1.25-1.71,4.315-5.989,4.315-8.034a4.077,4.077,0,0,0-4.3-4.3Z" transform="translate(238.805 449.005)"/><g transform="translate(228.13 436)"><path class="b" d="M26.292,18.046a.782.782,0,0,0,.557-.231l.758-.757a.16.16,0,0,0,.008-.22.157.157,0,0,0-.228-.006l-.675.675a.121.121,0,0,1-.171,0,.124.124,0,0,1,0-.174l.672-.672a.157.157,0,0,0-.006-.228.154.154,0,0,0-.1-.04.164.164,0,0,0-.116.048l-.672.672a.121.121,0,0,1-.171,0,.124.124,0,0,1,0-.174l.672-.672a.157.157,0,0,0-.006-.228.154.154,0,0,0-.1-.04.165.165,0,0,0-.116.048l-.757.757a.782.782,0,0,0-.231.557v.081a.157.157,0,0,1-.046.111l-.35.351a.039.039,0,0,1-.056,0L23.451,16.2a.157.157,0,0,0-.222,0,.825.825,0,0,0-.229.6,1.822,1.822,0,0,0,.559,1.221l.841.841a.638.638,0,0,0,.45.186.63.63,0,0,0,.16-.02.16.16,0,0,1,.04-.005.157.157,0,0,1,.107.042l.112.1a.159.159,0,0,1,.045.111v.055a.47.47,0,0,0,.135.331l.886.9h0a.524.524,0,1,0,.742-.742L25.749,18.5a.039.039,0,0,1,0-.056l.35-.35a.157.157,0,0,1,.111-.046Z" transform="translate(-6.861)"/><path class="b" d="M17.988,313.991a.958.958,0,0,1-.673-.278l-.136-.136a.079.079,0,0,0-.111,0l-.836.832a.556.556,0,0,0-.129.583.3.3,0,0,0,.015.035.556.556,0,0,0,.5.321.548.548,0,0,0,.39-.162l1.115-1.121a.046.046,0,0,0,.013-.037v0a.046.046,0,0,0-.051-.042A.953.953,0,0,1,17.988,313.991Z" transform="translate(0 -294.626)"/></g></g></svg>