<svg xmlns="http://www.w3.org/2000/svg" width="10.577" height="14.946" viewBox="0 0 10.577 14.946"><defs><style>.a{fill:#ffd9b8;}.b{fill:none;stroke:#f70;stroke-linecap:round;stroke-linejoin:round;stroke-width:0.5px;}</style></defs><g transform="translate(-241 -430)"><path class="a" d="M7.5,14.941l-.4-.495c-.973-1.189-4.9-6.556-4.9-9.16A5.066,5.066,0,0,1,7.036,0q.222-.01.445,0a5.066,5.066,0,0,1,5.286,4.836q.01.225,0,.45c0,2.213-2.669,6.111-4.678,8.851ZM7.481.986a4.077,4.077,0,0,0-4.3,4.3c0,1.832,2.759,6.038,4.286,8.034,1.25-1.71,4.315-5.989,4.315-8.034a4.077,4.077,0,0,0-4.3-4.3Z" transform="translate(238.805 430.005)"/><path class="b" d="M3,7.129h.459m0,0H4.606m-1.147,0V3M4.606,7.129h.918m-.918,0V5.982H4.147a1.147,1.147,0,0,1,1.835,0H5.523V7.129m0,0H6.67m0,0h.459m-.459,0V3M3,3h.459m0,0H6.67m0,0h.459m-2.753.8h.229m.918,0h.229m-1.376.918h.229m.918,0h.229" transform="translate(241.224 430.5)"/></g></svg>