<svg xmlns="http://www.w3.org/2000/svg" width="10.577" height="14.946" viewBox="0 0 10.577 14.946"><defs><style>.a{fill:#a2c7ff;}.b{fill:none;stroke:#004eff;stroke-linecap:round;stroke-linejoin:round;stroke-width:0.5px;}</style></defs><g transform="translate(-262 -430)"><path class="a" d="M7.5,14.941l-.4-.495c-.973-1.189-4.9-6.556-4.9-9.16A5.066,5.066,0,0,1,7.036,0q.222-.01.445,0a5.066,5.066,0,0,1,5.286,4.836q.01.225,0,.45c0,2.213-2.669,6.111-4.678,8.851ZM7.481.986a4.077,4.077,0,0,0-4.3,4.3c0,1.832,2.759,6.038,4.286,8.034,1.25-1.71,4.315-5.989,4.315-8.034a4.077,4.077,0,0,0-4.3-4.3Z" transform="translate(259.805 430.005)"/><g transform="translate(262.4 430.304)"><path class="b" d="M5.779,10.243H3.463A.463.463,0,0,1,3,9.779V7.232A.232.232,0,0,1,3.232,7H5.548a.232.232,0,0,1,.232.232v.579" transform="translate(0 -3.074)"/><path class="b" d="M9,11.232A.232.232,0,0,1,9.232,11h2.316a.232.232,0,0,1,.232.232v1.621a.463.463,0,0,1-.463.463H9.463A.463.463,0,0,1,9,12.853Z" transform="translate(-4.61 -6.147)"/><path class="b" d="M7.39,3.926V3.695A.7.7,0,0,0,6.695,3h0A.7.7,0,0,0,6,3.695v.232" transform="translate(-2.305)"/><path class="b" d="M13,14v.232a.463.463,0,0,0,.463.463h0a.463.463,0,0,0,.463-.463V14" transform="translate(-7.684 -8.452)"/></g></g></svg>